<svg width="76" height="38" viewBox="0 0 76 38" fill="none" xmlns="http://www.w3.org/2000/svg">
<path d="M71.1415 0.764711C72.3254 -0.32168 74.1519 -0.240825 75.2362 0.945375C76.3205 2.13178 76.2406 3.96243 75.0565 5.04889L40.0585 37.2364C39.4815 37.7659 38.7518 38.0152 38.0302 37.9991C38.0201 37.9995 38.01 37.9988 37.9999 37.9991C37.9895 37.9987 37.979 37.9995 37.9686 37.9991C37.2473 38.015 36.518 37.7656 35.9413 37.2364L0.943243 5.04889C-0.240784 3.96243 -0.320723 2.13178 0.763556 0.945375C1.84786 -0.240828 3.67433 -0.321681 4.85828 0.764711L37.9999 31.2608L71.1415 0.764711Z" fill="#A5A5A5"/>
</svg>
