<svg width="179" height="41" viewBox="0 0 179 41" fill="none" xmlns="http://www.w3.org/2000/svg">
<g clip-path="url(#clip0_233_613)">
<path d="M55.1123 17.2329H45.7545C45.4441 17.2329 45.1912 17.4858 45.1912 17.7962V38.8455C45.1912 39.1559 45.4441 39.3973 45.7545 39.3973H55.1353C62.5042 39.3973 67.2751 35.0403 67.2751 28.2921C67.2751 21.5439 62.4927 17.2214 55.1123 17.2214M55.1123 33.5688H51.9164V23.0959H55.1468C58.4806 23.0959 60.4694 25.0502 60.4694 28.3151C60.4694 30.9247 58.6301 33.5688 55.1238 33.5688" fill="#0078AE"/>
<path d="M108.741 22.9577C106.154 22.9577 104.062 24.3718 103.119 25.7858C102.43 23.9119 100.878 22.9577 98.4981 22.9577C95.8655 22.9577 93.8767 24.2913 93.1754 25.188V23.9234C93.1754 23.613 92.9225 23.3601 92.6121 23.3601H87.7493C87.4389 23.3601 87.1975 23.613 87.1975 23.9234V38.8568C87.1975 39.1672 87.4504 39.4086 87.7493 39.4086H92.6121C92.9225 39.4086 93.1754 39.1557 93.1754 38.8568V29.5105C93.5318 29.0966 94.256 28.2459 95.6011 28.2459C96.7852 28.2459 97.4289 28.8897 97.4289 30.0393V38.8568C97.4289 39.1672 97.6819 39.4086 97.9922 39.4086H102.855C103.165 39.4086 103.418 39.1557 103.418 38.8568V29.5105C103.763 29.0966 104.499 28.2459 105.879 28.2459C107.04 28.2459 107.706 28.9012 107.706 30.0393V38.8568C107.706 39.1672 107.959 39.4086 108.27 39.4086H113.133C113.443 39.4086 113.696 39.1557 113.696 38.8568V27.7861C113.696 24.6821 111.937 22.9692 108.741 22.9692" fill="#0078AE"/>
<path d="M121.559 23.3603H116.696C116.386 23.3603 116.133 23.6132 116.133 23.9236V38.8569C116.133 39.1673 116.386 39.4087 116.696 39.4087H121.559C121.87 39.4087 122.122 39.1558 122.122 38.8569V23.9236C122.122 23.6132 121.87 23.3603 121.559 23.3603Z" fill="#0078AE"/>
<path d="M119.272 15.4741C117.421 15.4741 115.915 16.9801 115.915 18.831C115.915 20.6818 117.421 22.1878 119.272 22.1878C121.123 22.1878 122.629 20.6818 122.629 18.831C122.629 16.9801 121.123 15.4741 119.272 15.4741Z" fill="#0078AE"/>
<path d="M136.16 22.9577C133.056 22.9577 131.377 24.3488 130.642 25.188V23.9234C130.642 23.613 130.389 23.3601 130.078 23.3601H125.215C124.905 23.3601 124.652 23.613 124.652 23.9234V38.8568C124.652 39.1672 124.905 39.4086 125.215 39.4086H130.078C130.389 39.4086 130.642 39.1557 130.642 38.8568V29.5105C131.032 29.0736 131.757 28.2459 133.205 28.2459C134.757 28.2459 135.539 29.0162 135.539 30.5336V38.8568C135.539 39.1672 135.792 39.4086 136.102 39.4086H140.965C141.275 39.4086 141.528 39.1557 141.528 38.8568V28.016C141.528 24.8546 139.528 22.9577 136.171 22.9577" fill="#0078AE"/>
<path d="M76.931 22.8773C72.2521 22.8773 68.4584 26.671 68.4584 31.3499C68.4584 36.0287 72.2521 39.8339 76.931 39.8339C81.6099 39.8339 85.4036 36.0402 85.4036 31.3499C85.4036 26.6595 81.6099 22.8773 76.931 22.8773ZM76.931 34.1319C75.333 34.1319 74.0455 32.8328 74.0455 31.2349C74.0455 29.6369 75.333 28.3494 76.931 28.3494C78.5289 28.3494 79.828 29.6369 79.828 31.2349C79.828 32.8328 78.5289 34.1319 76.931 34.1319Z" fill="#0078AE"/>
<path d="M151.759 22.9117C147.08 22.9117 143.287 26.7053 143.287 31.3842C143.287 36.0631 147.08 39.8568 151.759 39.8568C156.438 39.8568 160.243 36.0631 160.243 31.3842C160.243 26.7053 156.449 22.9117 151.759 22.9117ZM151.759 34.1548C150.161 34.1548 148.874 32.8557 148.874 31.2578C148.874 29.6598 150.161 28.3723 151.759 28.3723C153.357 28.3723 154.656 29.6713 154.656 31.2578C154.656 32.8442 153.369 34.1548 151.759 34.1548Z" fill="#0078AE"/>
<path d="M164.807 18.1181C164.439 16.4512 162.611 15.2441 160.818 15.612C159.013 15.9913 157.818 17.6698 158.174 19.3712C158.461 20.7737 159.714 21.7394 161.151 21.8313C161.06 22.4061 160.554 22.912 160.128 23.1534C159.841 23.3143 160.013 23.6132 160.013 23.6132L160.381 24.165C160.485 24.349 160.646 24.4409 160.841 24.3605C164.589 22.82 165.198 19.6011 164.796 18.1181H164.807Z" fill="#0078AE"/>
<path d="M169.233 28.131C169.222 27.5332 169.992 27.2688 170.969 27.2688C172.901 27.2688 174.004 27.8206 175.246 28.6368C175.372 28.7288 175.533 28.7518 175.683 28.7173C175.832 28.6828 175.958 28.5794 176.039 28.4529L177.683 25.5904C177.832 25.326 177.74 24.9926 177.487 24.8317C176.131 24.0269 174.165 22.9808 170.728 22.9808C165.773 22.9808 163.129 25.3145 163.566 28.6598C164.347 34.5458 173.498 32.534 173.36 34.5458C173.326 35.0056 172.521 35.362 171.119 35.362C169.302 35.362 167.244 34.4538 165.945 33.6491C165.819 33.5686 165.658 33.5456 165.52 33.5801C165.371 33.6146 165.244 33.7066 165.175 33.8445L163.278 37.006C163.14 37.2589 163.209 37.5808 163.451 37.7417C165.279 38.9718 168.21 39.7995 170.774 39.7995C175.729 39.7995 178.591 37.6727 178.591 34.1779C178.591 27.7172 169.302 29.7175 169.256 28.131" fill="#0078AE"/>
<path d="M39.7417 11.7146L28.7515 0.724372C28.2917 0.264531 27.6709 0.00012207 27.0156 0.00012207C26.3604 0.00012207 25.7396 0.253035 25.2797 0.724372L16.0599 9.94419L0.712699 25.2799C-0.241472 26.2341 -0.241472 27.7975 0.712699 28.7517L11.7029 39.7419C12.1628 40.2018 12.7835 40.4662 13.4388 40.4662C14.0941 40.4662 14.7149 40.2133 15.1747 39.7419L28.924 25.9927L39.7303 15.1864C40.6844 14.2322 40.6844 12.6688 39.7303 11.7146H39.7417Z" fill="white"/>
<path d="M38.9718 12.4964L27.9815 1.50619C27.4527 0.977369 26.5905 0.977369 26.0617 1.50619L14.1748 13.3931L27.0849 26.3031L38.9718 14.4162C39.5006 13.8874 39.5006 13.0252 38.9718 12.4964ZM29.3036 15.6693C28.6828 16.2901 27.8666 16.6005 27.0504 16.6005C26.2341 16.6005 25.4179 16.2901 24.7971 15.6693C24.1764 15.0485 23.866 14.2323 23.866 13.4161C23.866 12.5999 24.1764 11.7836 24.7971 11.1629C25.4179 10.5421 26.2341 10.2317 27.0504 10.2317C27.8666 10.2317 28.6828 10.5421 29.3036 11.1629C29.9244 11.7836 30.2348 12.5999 30.2348 13.4161C30.2348 14.2323 29.9244 15.0485 29.3036 15.6693Z" fill="#E31937"/>
<path d="M1.49447 26.0617C0.96565 26.5906 0.96565 27.4528 1.49447 27.9816L12.4847 38.9718C12.7491 39.2362 13.094 39.3742 13.4389 39.3742C13.7837 39.3742 14.1401 39.2362 14.4045 38.9718L26.2799 27.0964L13.3699 14.1863L1.49447 26.0617ZM11.0132 29.2231C10.3924 29.8439 9.57618 30.1543 8.75996 30.1543C7.94375 30.1543 7.12753 29.8439 6.50674 29.2231C5.88596 28.6024 5.57556 27.7861 5.57556 26.9699C5.57556 26.1537 5.88596 25.3375 6.50674 24.7167C7.12753 24.0959 7.94375 23.7855 8.75996 23.7855C9.57618 23.7855 10.3924 24.0959 11.0132 24.7167C11.634 25.3375 11.9444 26.1537 11.9444 26.9699C11.9444 27.7861 11.634 28.6024 11.0132 29.2231ZM15.853 24.8547C16.4738 24.2339 17.29 23.9235 18.1062 23.9235C18.9225 23.9235 19.7387 24.2339 20.3595 24.8547C20.9803 25.4754 21.2906 26.2917 21.2906 27.1079C21.2906 27.9241 20.9803 28.7403 20.3595 29.3611C19.7387 29.9819 18.9225 30.2923 18.1062 30.2923C17.29 30.2923 16.4738 29.9819 15.853 29.3611C15.2322 28.7403 14.9218 27.9241 14.9218 27.1079C14.9218 26.2917 15.2322 25.4754 15.853 24.8547Z" fill="#0078AE"/>
</g>
<defs>
<clipPath id="clip0_233_613">
<rect width="178.568" height="40.4776" fill="white"/>
</clipPath>
</defs>
</svg>
